<svg viewBox="0 0 2114 914" fill="none" xmlns="http://www.w3.org/2000/svg">
<path d="M1 1V842.724C1 842.724 109.14 698.54 148.463 718.024C187.787 737.509 150.943 867.482 236.941 906.373C364.431 964.028 411.457 624.246 515.483 706.334C542.708 727.817 532.242 757.513 564.637 773.879C633.288 808.563 564.977 647.228 638.369 619.304C744.663 578.861 661.278 810.772 776.001 832.332C893.569 854.428 900.173 670.212 1020.13 681.653C1151.06 694.141 1071.89 910.715 1203.64 906.373C1280.09 903.854 1299.4 798.272 1369.13 823.24C1405.57 836.287 1401.1 868.372 1434.67 885.59C1539.78 939.502 1570.6 727.809 1695.19 737.509C1805.29 746.081 1801.11 907.658 1908.19 885.59C1966.97 873.475 1963.83 801.857 2024.52 803.755C2064.02 804.991 2113 842.724 2113 842.724V1H1Z" fill="#D68917" stroke="black"/>
</svg>
