<svg width="1291" height="704" viewBox="0 0 1291 704" fill="none" xmlns="http://www.w3.org/2000/svg">
<path d="M1 1V649C1 649 67 538 91 553C115 568 92.5136 668.06 145 698C222.81 742.385 251.511 480.805 315 544C331.616 560.539 325.229 583.401 345 596C386.899 622.701 345.207 498.497 390 477C454.874 445.865 403.982 624.401 474 641C545.754 658.01 549.785 516.192 623 525C702.907 534.613 654.586 701.343 735 698C781.655 696.061 793.445 614.779 836 634C858.238 644.044 855.513 668.745 876 682C940.148 723.504 958.962 560.533 1035 568C1102.2 574.599 1099.65 698.989 1165 682C1200.88 672.673 1198.96 617.538 1236 619C1260.11 619.951 1290 649 1290 649V1H1Z" fill="#D68917" stroke="black"/>
</svg>
