<svg viewBox="0 0 2354 1109" fill="none" xmlns="http://www.w3.org/2000/svg">
<path d="M0 0V1023.54C0 1023.54 120.531 848.215 164.36 871.908C208.189 895.601 167.124 1053.65 262.976 1100.94C405.074 1171.05 457.489 757.873 573.434 857.692C603.778 883.816 592.114 919.927 628.22 939.828C704.738 982.004 628.599 785.819 710.4 751.863C828.874 702.684 735.935 984.69 863.803 1010.91C994.842 1037.78 1002.2 813.768 1135.91 827.681C1281.84 842.865 1193.59 1106.22 1340.45 1100.94C1425.65 1097.88 1447.18 969.49 1524.9 999.851C1565.51 1015.72 1560.53 1054.73 1597.94 1075.67C1715.09 1141.23 1749.45 883.807 1888.31 895.601C2011.04 906.025 2006.38 1102.5 2125.72 1075.67C2191.24 1060.94 2187.74 973.849 2255.38 976.158C2299.41 977.66 2354 1023.54 2354 1023.54V0H0Z" fill="#D68917"/>
</svg>
